<svg width="40" height="40" viewBox="0 0 53 53" fill="none" xmlns="http://www.w3.org/2000/svg">
<mask id="path-1-inside-1" fill="white">
<path d="M48.5833 11.2478C46.6106 7.19917 40.9278 3.88667 34.3175 5.81528C31.1588 6.72767 28.4029 8.68432 26.5 11.3656C24.5971 8.68432 21.8412 6.72767 18.6825 5.81528C12.0575 3.91611 6.38945 7.19917 4.41667 11.2478C1.6489 16.9158 2.79723 23.2906 7.83223 30.1953C11.7778 35.5983 17.4164 41.075 25.602 47.435C25.8606 47.6368 26.1793 47.7463 26.5074 47.7463C26.8354 47.7463 27.1541 47.6368 27.4128 47.435C35.5836 41.0897 41.237 35.6572 45.1825 30.1953C50.2028 23.2906 51.3511 16.9158 48.5833 11.2478Z"/>
</mask>
<path d="M48.5833 11.2478C46.6106 7.19917 40.9278 3.88667 34.3175 5.81528C31.1588 6.72767 28.4029 8.68432 26.5 11.3656C24.5971 8.68432 21.8412 6.72767 18.6825 5.81528C12.0575 3.91611 6.38945 7.19917 4.41667 11.2478C1.6489 16.9158 2.79723 23.2906 7.83223 30.1953C11.7778 35.5983 17.4164 41.075 25.602 47.435C25.8606 47.6368 26.1793 47.7463 26.5074 47.7463C26.8354 47.7463 27.1541 47.6368 27.4128 47.435C35.5836 41.0897 41.237 35.6572 45.1825 30.1953C50.2028 23.2906 51.3511 16.9158 48.5833 11.2478Z" fill="#E0579B" stroke="black" stroke-width="4" mask="url(#path-1-inside-1)"/>
</svg>
